<svg xmlns="http://www.w3.org/2000/svg" width="1648" height="512" viewBox="0 0 103 32" role="img" aria-label="Finby"><g transform="translate(0,0)"><rect width="32" height="32" rx="8" fill="#1d6ef5"/><path d="M9 21 L16 9 L19 15 L23 11" fill="none" stroke="#ffffff" stroke-width="2.4" stroke-linecap="round" stroke-linejoin="round"/><circle cx="23" cy="11" r="1.8" fill="#ffffff"/></g><g transform="translate(40,24.520) scale(0.024000,-0.024000)" fill="#1d6ef5"><path d="M68.0003662109375 0.0V710.0H572.3994750976562V567.6008911132812H143.79986572265625L241.9990234375 669.2000122070312V344.0L143.79986572265625 417.59954833984375H554.3994750976562V276.40045166015625H143.79986572265625L241.9990234375 350.0V0.0ZM628.1336263020834 0.0V537.9998779296875H800.1322835286459V0.0ZM625.3336385091146 597.8002319335938V726.1997680664062H802.9322713216146V597.8002319335938ZM880.4669596354167 0.0V537.9998779296875H1035.0657755533855L1042.0657145182292 373.40032958984375L1020.8658854166667 376.8004150390625Q1027.6659342447917 441.400146484375 1052.2659403483074 479.10003662109375Q1076.865946451823 516.7999267578125 1113.9659220377605 533.39990234375Q1151.065897623698 549.9998779296875 1196.0658365885417 549.9998779296875Q1253.065897623698 549.9998779296875 1294.1658732096355 525.3998413085938Q1335.265848795573 500.7998046875 1357.5658060709636 455.2998046875Q1379.8657633463542 409.7998046875 1379.8657633463542 345.7999267578125V0.0H1207.8671061197917V287.40045166015625Q1207.8671061197917 328.40057373046875 1201.967020670573 357.10064697265625Q1196.0669352213542 385.80072021484375 1180.2667948404949 400.9007568359375Q1164.4666544596355 416.00079345703125 1135.666483561198 416.00079345703125Q1093.866190592448 416.00079345703125 1073.1659037272136 382.7007141113281Q1052.4656168619792 349.400634765625 1052.4656168619792 287.40045166015625V0.0ZM1789.9989624023438 -12.0Q1733.3989868164062 -12.0 1692.7989501953125 11.70001220703125Q1652.1989135742188 35.4000244140625 1629.1989135742188 78.4000244140625L1626.1989135742188 0.0H1459.80029296875V710.0H1631.7989501953125V460.7999267578125Q1654.1989135742188 500.1998291015625 1694.5989379882812 525.099853515625Q1734.9989624023438 549.9998779296875 1789.9989624023438 549.9998779296875Q1857.5989990234375 549.9998779296875 1907.3990173339844 515.1998901367188Q1957.1990356445312 480.39990234375 1984.3990478515625 417.1999206542969Q2011.5990600585938 353.99993896484375 2011.5990600585938 268.99993896484375Q2011.5990600585938 183.99993896484375 1984.3990478515625 120.79995727539062Q1957.1990356445312 57.5999755859375 1907.3990173339844 22.79998779296875Q1857.5989990234375 -12.0 1789.9989624023438 -12.0ZM1736.19970703125 115.19927978515625Q1780.0000610351562 115.19927978515625 1807.4002380371094 155.39947509765625Q1834.8004150390625 195.59967041015625 1834.8004150390625 268.99993896484375Q1834.8004150390625 342.6002197265625 1808.2002258300781 382.7004089355469Q1781.6000366210938 422.80059814453125 1736.5997314453125 422.80059814453125Q1703.5994873046875 422.80059814453125 1679.79931640625 404.9005126953125Q1655.9991455078125 387.00042724609375 1643.8990478515625 352.60028076171875Q1631.7989501953125 318.20013427734375 1631.7989501953125 268.99993896484375Q1631.7989501953125 220.999755859375 1643.8990478515625 186.49960327148438Q1655.9991455078125 151.99945068359375 1679.6993103027344 133.599365234375Q1703.3994750976562 115.19927978515625 1736.19970703125 115.19927978515625ZM2116.9331868489585 -150.0V-25.60076904296875H2191.5329793294272Q2216.3330281575522 -25.60076904296875 2228.2330525716147 -18.300750732421875Q2240.1330769856772 -11.000732421875 2247.1330769856772 7.999267578125L2256.5332234700522 32.399658203125H2211.5334676106772L2024.733357747396 537.9998779296875H2198.3321126302085L2309.1328328450522 193.598388671875L2412.933553059896 537.9998779296875H2586.5323079427085L2383.5321248372397 -45.40032958984375Q2363.7321980794272 -102.0001220703125 2328.5322774251304 -126.00006103515625Q2293.3323567708335 -150.0 2229.9325154622397 -150.0Z"/></g></svg>
